<svg width="1440" height="1368" viewBox="0 0 1440 1368" fill="none" xmlns="http://www.w3.org/2000/svg">
<g opacity="0.15">
<path d="M745.789 717.448C730.297 783.914 736.494 924.942 885.218 957.325C1071.12 997.804 1074.12 981.313 1138.59 1062.27C1203.05 1143.23 1149.08 1275.16 1291.51 1332.13C1405.45 1377.71 1458.92 1369.11 1471.42 1359.12" stroke="#C2C2C2" stroke-linecap="round"/>
<path d="M789.008 671.046C773.516 737.512 779.712 878.54 928.436 910.923C1114.34 951.402 1117.34 934.911 1181.81 1015.87C1246.27 1096.83 1192.3 1228.76 1334.73 1285.73C1448.67 1331.31 1502.14 1322.71 1514.64 1312.72" stroke="#C2C2C2" stroke-linecap="round"/>
<path d="M813.427 628.677C797.935 695.143 804.132 836.171 952.856 868.554C1138.76 909.033 1141.76 892.542 1206.23 973.5C1270.69 1054.46 1216.72 1186.39 1359.15 1243.36C1473.09 1288.94 1526.56 1280.34 1539.06 1270.35" stroke="#C2C2C2" stroke-linecap="round"/>
<path d="M837.846 586.308C822.354 652.774 828.551 793.802 977.275 826.185C1163.18 866.665 1166.18 850.173 1230.65 931.132C1295.11 1012.09 1241.14 1144.02 1383.57 1200.99C1497.51 1246.57 1550.98 1237.97 1563.47 1227.98" stroke="#C2C2C2" stroke-linecap="round"/>
<path d="M862.265 543.939C846.773 610.405 852.97 751.433 1001.69 783.816C1187.6 824.296 1190.6 807.804 1255.06 888.763C1319.53 969.721 1265.56 1101.65 1407.99 1158.62C1521.93 1204.2 1575.4 1195.61 1587.89 1185.61" stroke="#C2C2C2" stroke-linecap="round"/>
<path d="M886.685 501.57C871.193 568.036 877.389 709.064 1026.11 741.448C1212.02 781.927 1215.02 765.435 1279.48 846.394C1343.95 927.352 1289.98 1059.28 1432.41 1116.26C1546.35 1161.83 1599.82 1153.24 1612.31 1143.24" stroke="#C2C2C2" stroke-linecap="round"/>
<path d="M911.104 459.201C895.612 525.667 901.809 666.695 1050.53 699.079C1236.44 739.558 1239.44 723.066 1303.9 804.025C1368.37 884.983 1314.4 1016.92 1456.82 1073.89C1570.77 1119.46 1624.24 1110.87 1636.73 1100.87" stroke="#C2C2C2" stroke-linecap="round"/>
<path d="M935.523 416.833C920.031 483.298 926.228 624.326 1074.95 656.71C1260.86 697.189 1263.86 680.697 1328.32 761.656C1392.79 842.615 1338.82 974.547 1481.24 1031.52C1595.19 1077.09 1648.66 1068.5 1661.15 1058.5" stroke="#C2C2C2" stroke-linecap="round"/>
</g>
<g opacity="0.15">
<path d="M-259.935 301.115C-275.427 367.581 -269.23 508.609 -120.506 540.992C65.3983 581.472 68.3968 564.98 132.864 645.939C197.331 726.897 143.358 858.83 285.786 915.801C399.727 961.377 453.2 952.782 465.693 942.787" stroke="#C2C2C2" stroke-linecap="round"/>
<path d="M-216.717 254.713C-232.209 321.179 -226.012 462.207 -77.288 494.591C108.617 535.07 111.615 518.578 176.082 599.537C240.549 680.495 186.577 812.428 329.004 869.399C442.946 914.975 496.418 906.38 508.912 896.385" stroke="#C2C2C2" stroke-linecap="round"/>
<path d="M-192.297 212.344C-207.789 278.81 -201.593 419.838 -52.8687 452.222C133.036 492.701 136.035 476.209 200.502 557.168C264.969 638.127 210.996 770.059 353.423 827.03C467.365 872.606 520.838 864.011 533.331 854.016" stroke="#C2C2C2" stroke-linecap="round"/>
<path d="M-167.878 169.976C-183.37 236.442 -177.173 377.469 -28.4494 409.853C157.455 450.332 160.454 433.84 224.921 514.799C289.388 595.758 235.416 727.69 377.843 784.661C491.784 830.238 545.257 821.642 557.751 811.647" stroke="#C2C2C2" stroke-linecap="round"/>
<path d="M-143.459 127.607C-158.951 194.073 -152.754 335.1 -4.03017 367.484C181.875 407.963 184.873 391.472 249.34 472.43C313.807 553.389 259.835 685.321 402.262 742.292C516.204 787.869 569.676 779.273 582.17 769.278" stroke="#C2C2C2" stroke-linecap="round"/>
<path d="M-119.04 85.2378C-134.532 151.704 -128.335 292.732 20.389 325.115C206.294 365.594 209.292 349.103 273.759 430.061C338.226 511.02 284.254 642.952 426.681 699.923C540.623 745.5 594.095 736.904 606.589 726.909" stroke="#C2C2C2" stroke-linecap="round"/>
<path d="M-94.6203 42.8689C-110.112 109.335 -103.916 250.363 44.8083 282.746C230.713 323.225 233.712 306.734 298.179 387.692C362.646 468.651 308.673 600.583 451.1 657.554C565.042 703.131 618.515 694.535 631.008 684.54" stroke="#C2C2C2" stroke-linecap="round"/>
<path d="M-70.201 0.5C-85.6931 66.966 -79.4963 207.994 69.2276 240.377C255.132 280.856 258.131 264.365 322.598 345.323C387.065 426.282 333.092 558.214 475.52 615.185C589.461 660.762 642.934 652.166 655.427 642.172" stroke="#C2C2C2" stroke-linecap="round"/>
</g>
</svg>
