<svg width="104" height="22" viewBox="0 0 104 22" fill="none" xmlns="http://www.w3.org/2000/svg">
<path d="M0 0.499951H4.86C6.5 0.499951 7.73 0.939951 8.55 1.81995C9.37 2.69995 9.78 3.98995 9.78 5.68995V7.75995C9.78 9.45995 9.37 10.75 8.55 11.63C7.73 12.51 6.5 12.95 4.86 12.95H3.3V21.5H0V0.499951ZM4.86 9.94995C5.4 9.94995 5.8 9.79995 6.06 9.49995C6.34 9.19995 6.48 8.68995 6.48 7.96995V5.47995C6.48 4.75995 6.34 4.24995 6.06 3.94995C5.8 3.64995 5.4 3.49995 4.86 3.49995H3.3V9.94995H4.86Z" fill="black"/>
<path d="M11.5723 0.499951H14.8723V18.5H20.3023V21.5H11.5723V0.499951Z" fill="black"/>
<path d="M24.552 0.499951H29.022L32.442 21.5H29.142L28.542 17.33V17.39H24.792L24.192 21.5H21.132L24.552 0.499951ZM28.152 14.54L26.682 4.15995H26.622L25.182 14.54H28.152Z" fill="black"/>
<path d="M34.043 0.499951H38.183L41.393 13.07H41.453V0.499951H44.393V21.5H41.003L37.043 6.16995H36.983V21.5H34.043V0.499951Z" fill="black"/>
<path d="M49.4257 3.49995H45.9757V0.499951H56.1757V3.49995H52.7257V21.5H49.4257V3.49995Z" fill="black"/>
<path d="M62.0634 21.8C60.4634 21.8 59.2534 21.35 58.4334 20.45C57.6134 19.53 57.2034 18.22 57.2034 16.52V15.32H60.3234V16.76C60.3234 18.12 60.8934 18.8 62.0334 18.8C62.5934 18.8 63.0134 18.64 63.2934 18.32C63.5934 17.98 63.7434 17.44 63.7434 16.7C63.7434 15.82 63.5434 15.05 63.1434 14.39C62.7434 13.71 62.0034 12.9 60.9234 11.96C59.5634 10.76 58.6134 9.67995 58.0734 8.71995C57.5334 7.73995 57.2634 6.63995 57.2634 5.41995C57.2634 3.75995 57.6834 2.47995 58.5234 1.57995C59.3634 0.659951 60.5834 0.199951 62.1834 0.199951C63.7634 0.199951 64.9534 0.659951 65.7534 1.57995C66.5734 2.47995 66.9834 3.77995 66.9834 5.47995V6.34995H63.8634V5.26995C63.8634 4.54995 63.7234 4.02995 63.4434 3.70995C63.1634 3.36995 62.7534 3.19995 62.2134 3.19995C61.1134 3.19995 60.5634 3.86995 60.5634 5.20995C60.5634 5.96995 60.7634 6.67995 61.1634 7.33995C61.5834 7.99995 62.3334 8.79995 63.4134 9.73995C64.7934 10.94 65.7434 12.03 66.2634 13.01C66.7834 13.99 67.0434 15.14 67.0434 16.46C67.0434 18.18 66.6134 19.5 65.7534 20.42C64.9134 21.34 63.6834 21.8 62.0634 21.8Z" fill="black"/>
<path d="M68.9355 0.499951H72.2355V9.04995H75.7756V0.499951H79.0755V21.5H75.7756V12.05H72.2355V21.5H68.9355V0.499951Z" fill="black"/>
<path d="M86.3032 21.8C84.6832 21.8 83.4432 21.34 82.5832 20.42C81.7232 19.5 81.2932 18.2 81.2932 16.52V5.47995C81.2932 3.79995 81.7232 2.49995 82.5832 1.57995C83.4432 0.659951 84.6832 0.199951 86.3032 0.199951C87.9232 0.199951 89.1632 0.659951 90.0232 1.57995C90.8832 2.49995 91.3132 3.79995 91.3132 5.47995V16.52C91.3132 18.2 90.8832 19.5 90.0232 20.42C89.1632 21.34 87.9232 21.8 86.3032 21.8ZM86.3032 18.8C87.4432 18.8 88.0132 18.11 88.0132 16.73V5.26995C88.0132 3.88995 87.4432 3.19995 86.3032 3.19995C85.1632 3.19995 84.5932 3.88995 84.5932 5.26995V16.73C84.5932 18.11 85.1632 18.8 86.3032 18.8Z" fill="black"/>
<path d="M93.5449 0.499951H98.4049C100.045 0.499951 101.275 0.939951 102.095 1.81995C102.915 2.69995 103.325 3.98995 103.325 5.68995V7.75995C103.325 9.45995 102.915 10.75 102.095 11.63C101.275 12.51 100.045 12.95 98.4049 12.95H96.8449V21.5H93.5449V0.499951ZM98.4049 9.94995C98.9449 9.94995 99.3449 9.79995 99.6049 9.49995C99.8849 9.19995 100.025 8.68995 100.025 7.96995V5.47995C100.025 4.75995 99.8849 4.24995 99.6049 3.94995C99.3449 3.64995 98.9449 3.49995 98.4049 3.49995H96.8449V9.94995H98.4049Z" fill="black"/>
</svg>
